<svg width="11" height="6" viewBox="0 0 11 6" fill="none" xmlns="http://www.w3.org/2000/svg">
<path d="M5.66623 5.67961C5.53551 5.67966 5.4097 5.6299 5.31453 5.5405L1.06945 1.55343C0.97766 1.45901 0.925863 1.33295 0.924821 1.20143C0.923778 1.06991 0.973571 0.943047 1.06385 0.847195C1.15413 0.751342 1.27797 0.69387 1.40962 0.686719C1.54127 0.679568 1.67063 0.723288 1.77081 0.808795L5.66521 4.46651L9.56166 0.808795C9.66078 0.715747 9.7929 0.66579 9.92895 0.669914C9.99632 0.671956 10.0626 0.687214 10.1241 0.714817C10.1855 0.742419 10.2409 0.781826 10.2871 0.830786C10.3333 0.879747 10.3694 0.937303 10.3933 1.00017C10.4171 1.06303 10.4284 1.12998 10.4263 1.19717C10.4243 1.26437 10.409 1.33051 10.3813 1.39181C10.3537 1.45311 10.3142 1.50838 10.2651 1.55445L6.01794 5.5405C5.92277 5.6299 5.79696 5.67966 5.66623 5.67961Z" fill="white"/>
</svg>
